Coordinates
version=1
nRows=19
nColumns=27
inDegrees=yes

Units are S.I. units (second, meters, Newtons, ...)
Angles are in degrees.

endheader
time	pelvis_rotation	pelvis_list	pelvis_tilt	pelvis_tx	pelvis_ty	pelvis_tz	hip_flexion_r	hip_adduction_r	hip_rotation_r	knee_angle_r	knee_adduction_r	knee_rotation_r	ankle_angle_r	ankle_rot_r	subtalar_angle_r	mtp_angle_r	hip_flexion_l	hip_adduction_l	hip_rotation_l	knee_angle_l	knee_adduction_l	knee_rotation_l	ankle_angle_l	ankle_rot_l	subtalar_angle_l	mtp_angle_l
      0.34000000	     -1.46943254	     -6.18777191	      4.99248182	     -0.23250037	      0.93478138	     -0.26053961	     -0.15241168	      8.33869786	      1.43725352	    -15.23605490	      4.39840853	     -3.08047868	     15.64905196	     -6.49244596	      0.00000000	      0.00000000	     21.25352396	    -12.12622064	     -6.60246436	    -46.77184639	      3.79292206	    -22.71632010	      6.56287449	     16.71609470	      0.00000000	      0.00000000
      0.35000000	     -1.99433496	     -6.26169066	      5.12507623	     -0.22235520	      0.93467384	     -0.26017173	     -1.12486477	      8.40488816	      2.28049459	    -14.90197013	      4.52850642	     -3.39839159	     16.05785137	     -6.40569172	      0.00000000	      0.00000000	     21.37971232	    -12.26739283	     -6.15012169	    -43.65461893	      4.55063131	    -23.18924768	      6.80575004	     16.84434304	      0.00000000	      0.00000000
      0.36000000	     -2.51565222	     -6.38169657	      5.26701442	     -0.21212431	      0.93439553	     -0.25991675	     -2.10606366	      8.49455636	      3.19311410	    -14.57517771	      4.68009219	     -3.78088907	     16.47423964	     -6.32380222	      0.00000000	      0.00000000	     21.40503456	    -12.43924557	     -5.89297769	    -40.35362282	      5.11354954	    -23.61513242	      6.95381295	     17.01478548	      0.00000000	      0.00000000
      0.37000000	     -3.03254429	     -6.54362027	      5.41360749	     -0.20180356	      0.93394160	     -0.25977065	     -3.08806532	      8.60257319	      4.15347957	    -14.26336432	      4.84895792	     -4.21437247	     16.90030259	     -6.24569915	      0.00000000	      0.00000000	     21.33669550	    -12.63757301	     -5.85182910	    -36.89973075	      5.48453414	    -23.97397495	      7.01030893	     17.27560571	      0.00000000	      0.00000000
      0.38000000	     -3.54239813	     -6.74262252	      5.56140720	     -0.19139031	      0.93331236	     -0.25973092	     -4.06331820	      8.72301457	      5.13264928	    -13.97493505	      5.03050679	     -4.68460532	     17.33132281	     -6.16153351	      0.00000000	      0.00000000	     21.17913511	    -12.85662050	     -6.01272772	    -33.32092770	      5.69325797	    -24.26422293	      6.96662482	     17.66707715	      0.00000000	      0.00000000
      0.39000000	     -4.04223879	     -6.96952446	      5.70988861	     -0.18087413	      0.93251657	     -0.25979510	     -5.02825427	      8.84550705	      6.09938779	    -13.71817064	      5.22033189	     -5.16632341	     17.76782980	     -6.06773986	      0.00000000	      0.00000000	     20.93178254	    -13.08508941	     -6.34983196	    -29.64802828	      5.77663962	    -24.49254601	      6.82901807	     18.21662923	      0.00000000	      0.00000000
      0.40000000	     -4.52888031	     -7.21814299	      5.85509076	     -0.17024706	      0.93156038	     -0.25995379	     -5.97682367	      8.96443558	      7.03467012	    -13.49777495	      5.41558383	     -5.63247753	     18.20663242	     -5.97519845	      0.00000000	      0.00000000	     20.60335284	    -13.31504342	     -6.83590997	    -25.92755434	      5.76844896	    -24.65049219	      6.58507946	     18.91695358	      0.00000000	      0.00000000
      0.41000000	     -4.99724428	     -7.48425031	      5.99310050	     -0.15950977	      0.93044565	     -0.26018991	     -6.90254108	      9.07851548	      7.92113464	    -13.31883135	      5.61251018	     -6.06310185	     18.64563558	     -5.88935228	      0.00000000	      0.00000000	     20.21132210	    -13.54091962	     -7.43253276	    -22.22938665	      5.70256696	    -24.72940448	      6.23042292	     19.72539521	      0.00000000	      0.00000000
      0.42000000	     -5.44603931	     -7.76380110	      6.11671332	     -0.14867508	      0.92916795	     -0.26047617	     -7.79299798	      9.18876301	      8.75027434	    -13.19067872	      5.80775263	     -6.43658333	     19.08614424	     -5.82398969	      0.00000000	      0.00000000	     19.78845290	    -13.76140404	     -8.11121519	    -18.65425578	      5.60460660	    -24.72668694	      5.77273923	     20.58990739	      0.00000000	      0.00000000
      0.43000000	     -5.87673317	     -8.04928604	      6.22041332	     -0.13776167	      0.92772953	     -0.26077864	     -8.63654303	      9.29418390	      9.51419691	    -13.12526860	      5.99650602	     -6.73171184	     19.53264042	     -5.79289515	      0.00000000	      0.00000000	     19.37469579	    -13.97505093	     -8.85606715	    -15.32934568	      5.49248256	    -24.64384890	      5.23740230	     21.45058214	      0.00000000	      0.00000000
      0.44000000	     -6.29121971	     -8.32119666	      6.30342790	     -0.12677681	      0.92615578	     -0.26106424	     -9.42795083	      9.38120931	     10.19895383	    -13.13407516	      6.17264308	     -6.92577225	     19.98577797	     -5.80647055	      0.00000000	      0.00000000	     19.00359255	    -14.16888666	     -9.66142975	    -12.38850644	      5.37811107	    -24.48427365	      4.66973563	     22.24224050	      0.00000000	      0.00000000
      0.45000000	     -6.68448933	     -8.55178630	      6.37405530	     -0.11571382	      0.92449734	     -0.26131213	    -10.17515806	      9.42748885	     10.77803045	    -13.22416750	      6.32763336	     -7.00750003	     20.44631523	     -5.85797916	      0.00000000	      0.00000000	     18.69192148	    -14.31832534	    -10.50948600	     -9.95229545	      5.27065514	    -24.25793494	      4.12559064	     22.89613457	      0.00000000	      0.00000000
      0.46000000	     -7.04635961	     -8.71137520	      6.44197192	     -0.10455422	      0.92281369	     -0.26151441	    -10.89097588	      9.40781684	     11.22482225	    -13.39713963	      6.45419512	     -6.97687310	     20.90967349	     -5.93766705	      0.00000000	      0.00000000	     18.44472844	    -14.39386254	    -11.36387920	     -8.11184012	      5.17441819	    -23.99277527	      3.65847095	     23.35943037	      0.00000000	      0.00000000
      0.47000000	     -7.36287641	     -8.77789125	      6.51666499	     -0.09327177	      0.92116090	     -0.26167922	    -11.59352521	      9.30274015	     11.53971099	    -13.64018936	      6.55303095	     -6.87626365	     21.36211051	     -6.02696122	      0.00000000	      0.00000000	     18.25849487	    -14.37014800	    -12.18101802	     -6.92259098	      5.08400743	    -23.70550321	      3.30353145	     23.59068224	      0.00000000	      0.00000000
      0.48000000	     -7.62635448	     -8.74099740	      6.59789141	     -0.08183726	      0.91957450	     -0.26182047	    -12.28933709	      9.10302039	     11.72175843	    -13.94401927	      6.62467143	     -6.72141389	     21.78734230	     -6.12061026	      0.00000000	      0.00000000	     18.12995180	    -14.23456420	    -12.89806699	     -6.38877834	      4.98870112	    -23.47616787	      3.06018593	     23.63041197	      0.00000000	      0.00000000
      0.49000000	     -7.82786422	     -8.60671903	      6.67887541	     -0.07022575	      0.91806857	     -0.26196346	    -12.97742750	      8.81669920	     11.77653004	    -14.29962357	      6.66873669	     -6.53740636	     22.16953875	     -6.21413272	      0.00000000	      0.00000000	     18.05925797	    -13.98802547	    -13.45557222	     -6.47265692	      4.87391044	    -23.35806538	      2.89140000	     23.53608484	      0.00000000	      0.00000000
      0.50000000	     -7.96650372	     -8.39262431	      6.74012721	     -0.05841083	      0.91663756	     -0.26212757	    -13.63786776	      8.46407268	     11.70367265	    -14.70998755	      6.67922726	     -6.32664486	     22.48846413	     -6.30471863	      0.00000000	      0.00000000	     18.05567027	    -13.64569337	    -13.81889605	     -7.09595419	      4.72915026	    -23.39046560	      2.73187215	     23.39329772	      0.00000000	      0.00000000
      0.51000000	     -8.03915666	     -8.11844123	      6.76410536	     -0.04636194	      0.91528094	     -0.26233696	    -14.25147775	      8.06814377	     11.50340171	    -15.18147861	      6.64803010	     -6.08219511	     22.72168928	     -6.39681169	      0.00000000	      0.00000000	     18.12428444	    -13.22301851	    -13.98761826	     -8.15140860	      4.54961347	    -23.55129207	      2.50833561	     23.26264156	      0.00000000	      0.00000000
      0.52000000	     -8.04541555	     -7.79925828	      6.73156173	     -0.03405280	      0.91401007	     -0.26260713	    -14.79450499	      7.64709556	     11.20541587	    -15.71828253	      6.57401905	     -5.82865527	     22.84024164	     -6.48979595	      0.00000000	      0.00000000	     18.27277657	    -12.73276254	    -14.01973359	     -9.51817649	      4.33066297	    -23.75674097	      2.15760291	     23.18123578	      0.00000000	      0.00000000
